<svg version="1.1" id="Layer_1" xmlns="http://www.w3.org/2000/svg" x="0" y="0" viewBox="0 0 100 100" style="enable-background:new 0 0 100 100" xml:space="preserve"><style>.st0{fill:#1d1d1b}</style><path class="st0" d="M70.813 68.142v-19.32h6.691c1.655 0 2.912.119 3.773.356a6.544 6.544 0 0 1 2.934 1.687c.828.817 1.473 1.847 1.935 3.09.462 1.243.693 2.717.693 4.421 0 2.188-.393 4.043-1.177 5.568-.785 1.524-1.793 2.605-3.023 3.242-1.231.637-2.84.955-4.828.955h-6.998zm2.563-2.28h4.127c1.666 0 2.929-.222 3.789-.666.86-.443 1.52-1.157 1.983-2.141.612-1.309.919-2.877.919-4.705 0-1.959-.326-3.499-.976-4.619-.65-1.12-1.486-1.869-2.507-2.247-.688-.255-1.779-.382-3.272-.382h-4.063v14.76z"/><path class="st0" d="M70.813 68.142v-19.32h6.691c1.655 0 2.912.119 3.773.356a6.544 6.544 0 0 1 2.934 1.687c.828.817 1.473 1.847 1.935 3.09.462 1.243.693 2.717.693 4.421 0 2.188-.393 4.043-1.177 5.568-.785 1.524-1.793 2.605-3.023 3.242-1.231.637-2.84.955-4.828.955h-6.998zm2.563-2.28h4.127c1.666 0 2.929-.222 3.789-.666.86-.443 1.52-1.157 1.983-2.141.612-1.309.919-2.877.919-4.705 0-1.959-.326-3.499-.976-4.619-.65-1.12-1.486-1.869-2.507-2.247-.688-.255-1.779-.382-3.272-.382h-4.063v14.76zM58.803 62.652 43.959 45.469l12.021-7.826h-8.552l-11.94 7.939v-7.939H25.404v25.009h10.084V50.97l10.246 11.682z"/><path class="st0" d="M40.273 26.037c13.295 0 24.111 10.816 24.111 24.111S53.568 74.259 40.273 74.259 16.162 63.443 16.162 50.148s10.816-24.111 24.111-24.111m0-3c-14.973 0-27.111 12.138-27.111 27.111S25.3 77.259 40.273 77.259s27.111-12.138 27.111-27.111-12.138-27.111-27.111-27.111z"/></svg>