<svg version="1.1" id="Layer_1" xmlns="http://www.w3.org/2000/svg" x="0" y="0" viewBox="0 0 100 100" style="enable-background:new 0 0 100 100" xml:space="preserve"><style>.st0{fill:#1d1d1b}</style><path class="st0" d="M63.638 45.048c-.023-.138-.033-.159-.027-.171 1.178-2.193 2.452-4.31 5.115-4.938 1.957-.462 3.876-.278 5.547.907 1.336.948 2.597 2.011 3.829 3.095 2.1 1.847 4.143 3.757 6.228 5.621.362.323.82.537 1.214.829.105.078.221.285.187.382a227.016 227.016 0 0 1-1.713 4.718c-.037.099-.237.197-.359.194-3.969-.073-7.805.806-11.635 1.672-4.939 1.117-9.085-.287-12.727-3.69-2.234-2.086-3.321-4.74-4.127-7.561-.413-1.444-.682-2.93-1.016-4.397-.014-.061-.025-.122-.054-.262-.165 1.39-.233 2.71-.489 3.993-.788 3.954-2.593 7.353-5.713 9.982-2.156 1.817-4.708 2.543-7.468 2.647-1.865.071-3.728.03-5.564-.372a.839.839 0 0 1-.462-.261c.324-.122.644-.257.972-.365 2.638-.87 5.256-1.79 7.638-3.257.735-.453 1.447-.943 2.169-1.416.691-.453 1.094-1.052 1.166-1.911.235-2.818.153-5.604-.981-8.238-.423-.981-1.061-1.882-1.685-2.76-.576-.81-1.518-1.029-2.438-1.227a10.05 10.05 0 0 0-.75-.131c-.81-.109-1.45-.485-1.978-1.12-.829-.997-1.685-1.986-1.82-3.336-.186-1.86.367-3.543 1.408-5.074.273-.401.689-.467 1.079-.241.582.337 1.183.679 1.673 1.131 3.015 2.775 5.37 6.006 6.594 9.964.62 2.006.549 4.091.481 6.156-.047 1.42-.225 2.835-.344 4.252l-.039.489c.19-.208.301-.318.4-.438 1.957-2.359 2.988-5.122 3.539-8.096.633-3.414.439-6.859.355-10.297-.026-1.065-.172-2.127-.24-3.192-.018-.28-.03-.611.097-.841.519-.941 1.093-1.853 1.646-2.775l.133.04c.083.731.159 1.462.25 2.192.602 4.804 1.229 9.61 2.556 14.278 1.06 3.725 3.208 6.746 6.42 8.939 2.252 1.538 4.789 2.135 7.491 1.801a96.684 96.684 0 0 0 6.259-1.007c1.209-.23 1.234-.393.477-1.363a23.588 23.588 0 0 0-4.098-4.081c-2.493-1.945-5.185-2.12-8.036-.912-.368.155-.744.287-1.16.448zM31.557 22.106c.137.265.243.469.347.674.726 1.429 1.424 2.874 2.193 4.279.267.487.423.905.131 1.409-.033.058-.037.132-.07.19-.816 1.416-.915 2.949-.899 4.55.049 4.764.024 9.529.001 14.294-.007 1.452.072 2.935-.501 4.315-1.607 3.866-4.374 6.449-8.523 7.315-1.812.378-3.694.38-5.469-.29-2.82-1.064-4.376-3.607-4.494-6.892-.135-3.742 1.143-7.072 2.784-10.316.133-.264.355-.482.627-.679-.283 1.328-.588 2.651-.843 3.984-.32 1.671-.531 3.346.035 5.019.776 2.295 2.576 3.625 4.995 3.662 1.356.021 2.705.019 4.041-.303 1.475-.356 2.544-1.298 3.554-2.337.098-.101.117-.31.117-.469-.022-6.901-.01-13.802-.112-20.702-.02-1.38-.459-2.758-.743-4.128-.074-.357-.031-.598.222-.859.672-.694 1.316-1.415 1.977-2.12.183-.194.386-.366.63-.596z"/><g><path class="st0" d="M18.992 77.894V64.417h2.722v5.305h5.365v-5.305h2.722v13.477h-2.722v-5.893h-5.365v5.893h-2.722zM44.816 77.894h-2.96l-1.184-3.052H35.26l-1.118 3.052H31.24l5.265-13.477h2.891l5.42 13.477zm-5.023-5.332-1.867-5.001-1.831 5.001h3.698zM46.323 77.894V64.527h2.722v11.087h6.793v2.28h-9.515zM69.986 77.894h-2.96l-1.184-3.052H60.43l-1.118 3.052H56.41l5.265-13.477h2.891l5.42 13.477zm-5.022-5.332-1.867-5.001-1.831 5.001h3.698zM71.493 77.894V64.527h2.722v11.087h6.793v2.28h-9.515z"/></g></svg>