<svg version="1.1" id="Layer_1" xmlns="http://www.w3.org/2000/svg" x="0" y="0" viewBox="0 0 100 100" style="enable-background:new 0 0 100 100" xml:space="preserve"><style>.st10{fill:#1d1d1b}</style><path class="st10" d="M50 4.5c25.089 0 45.5 20.411 45.5 45.5S75.089 95.5 50 95.5 4.5 75.089 4.5 50 24.911 4.5 50 4.5m0-4C22.662.5.5 22.662.5 50S22.662 99.5 50 99.5 99.5 77.338 99.5 50 77.338.5 50 .5z"/><path class="st10" d="M22.301 64.014h1.787l-3.07 8.372h-2.039l-3.07-8.372h1.799l2.303 6.657 2.29-6.657zM28.002 72.493c-1.931 0-3.334-1.343-3.334-3.43 0-2.099 1.367-3.431 3.334-3.431 1.919 0 3.274 1.308 3.274 3.286 0 .217-.012.433-.048.648h-4.857c.084.983.756 1.535 1.596 1.535.719 0 1.115-.36 1.331-.804h1.811c-.36 1.225-1.463 2.196-3.107 2.196zm-1.619-4.054h3.154c-.023-.875-.719-1.427-1.583-1.427-.804.001-1.438.516-1.571 1.427zM35.105 65.633c1.044 0 1.8.48 2.195 1.056v-.947h1.691v6.692c0 1.799-1.104 3.227-3.287 3.227-1.87 0-3.178-.936-3.346-2.459h1.667c.168.6.792.995 1.631.995.924 0 1.644-.527 1.644-1.763v-1.031c-.396.575-1.151 1.091-2.195 1.091-1.69 0-3.034-1.379-3.034-3.454s1.344-3.407 3.034-3.407zm.433 1.475c-.9 0-1.751.672-1.751 1.931 0 1.26.851 1.979 1.751 1.979.923 0 1.763-.696 1.763-1.955 0-1.259-.84-1.955-1.763-1.955zM43.542 72.493c-1.931 0-3.334-1.343-3.334-3.43 0-2.099 1.367-3.431 3.334-3.431 1.919 0 3.274 1.308 3.274 3.286 0 .217-.012.433-.048.648h-4.857c.084.983.756 1.535 1.596 1.535.72 0 1.115-.36 1.331-.804h1.811c-.36 1.225-1.463 2.196-3.107 2.196zm-1.618-4.054h3.153c-.023-.875-.719-1.427-1.583-1.427-.803.001-1.438.516-1.57 1.427zM48.308 67.12h-.792v-1.379h.792v-1.644h1.69v1.644h1.487v1.379h-1.487v3.215c0 .443.18.636.708.636h.779v1.415H50.43c-1.271 0-2.122-.54-2.122-2.063V67.12zM55.302 65.633c1.067 0 1.8.504 2.195 1.056v-.947h1.691v6.645h-1.691v-.972c-.396.575-1.151 1.079-2.207 1.079-1.679 0-3.022-1.379-3.022-3.454s1.343-3.407 3.034-3.407zm.432 1.475c-.9 0-1.752.672-1.752 1.931 0 1.26.852 1.979 1.752 1.979.923 0 1.763-.696 1.763-1.955 0-1.259-.84-1.955-1.763-1.955zM62.515 72.386h-1.68v-6.645h1.68v1.031c.42-.684 1.115-1.127 2.039-1.127v1.763h-.444c-.995 0-1.595.384-1.595 1.667v3.311zM65.503 63.966c0-.552.432-.983 1.031-.983.588 0 1.032.432 1.032.983s-.444.983-1.032.983c-.599 0-1.031-.431-1.031-.983zm.18 1.775h1.68v6.645h-1.68v-6.645zM71.621 65.633c1.067 0 1.8.504 2.195 1.056v-.947h1.691v6.645h-1.691v-.972c-.396.575-1.151 1.079-2.207 1.079-1.679 0-3.022-1.379-3.022-3.454s1.344-3.407 3.034-3.407zm.433 1.475c-.9 0-1.751.672-1.751 1.931 0 1.26.851 1.979 1.751 1.979.923 0 1.763-.696 1.763-1.955-.001-1.259-.84-1.955-1.763-1.955zM81.809 68.716c0-1.067-.588-1.644-1.476-1.644-.911 0-1.499.576-1.499 1.644v3.67h-1.68v-6.645h1.68v.827c.432-.563 1.151-.923 2.003-.923 1.547 0 2.65 1.007 2.65 2.842v3.898h-1.679v-3.669zM64.576 13.649c-7.643 2.045-11.007 5.484-12.323 8.827-.011.028-.025.052-.035.08-.021.06-.043.133-.064.195-.072.2-.139.398-.197.597-2.315 7.059-5.151 21.438-6.223 31.017-2.422-7.66-2.818-11.988-3.99-17.649-.946-4.476-2.415-6.775-5.465-7.619-.744-.219-1.153.292-1.079 1.146.94 7.943 3.546 18.257 5.433 23.023 1.43 3.607 2.974 4.503 6.145 4.564.816.024.932-.593 1.018-1.277 1.588-12.211 4.108-22.573 5.636-26.937 2.802-7.693 6.721-9.224 6.721-9.224-6.21 7.825-5.213 12.432-5.213 12.432 12.255-6.17 9.636-19.175 9.636-19.175z"/></svg>